# xmcd CD database file
#
# Track frame offsets:
#	150
#	14237
#	29855
#	63325
#	83620
#	102832
#	125965
#	145697
#	166077
#	185545
#	210005
#	236442
#	252545
#	277427
#
# Disc length: 4010 seconds
#
# Revision: 0
# Processed by: cddbd v1.5PL3 Copyright (c) Steve Scherf et al.
# Submitted via: CDex 1.51
#
DISCID=ce0fa80e
DTITLE=Various Artist - The Jazz Sampler 3
DYEAR=1900
DGENRE=Jazz
TTITLE0=BJarne Nerem - Soon
TTITLE1=Einar Iversen - How About You?
TTITLE2=Magni Wentzel and Roger Kellaway and Red Mitchell - Yesterday I Heard The Rain
TTITLE3=Knut Riisnaes and Red Halloway - The Gemini Twins
TTITLE4=Laila Dalseth - Out Of Nowhere
TTITLE5=Per Nyhaug Studioband - Soaring
TTITLE6=Totti Bergh and Plas Johnson - Blue And Sentimetal
TTITLE7=Asumnd Bjorken - Pot's On
TTITLE8=Harald Gundhus - Falling In Love
TTITLE9=Dag Arnesen - When The Party's Over
TTITLE10=Odd Riisnaes - 3.0
TTITLE11=Egil Kapstad - Remembrance Of Eric Dolphy
TTITLE12=Magni Wentzel and Roger Kellaway and Niels-Henning Orsted Pedersen - Love Comes And Goes
TTITLE13=Slava Preobrazhenski and Nisse Sandstorm - Jubilation
EXTD=
EXTT0=
EXTT1=
EXTT2=
EXTT3=
EXTT4=
EXTT5=
EXTT6=
EXTT7=
EXTT8=
EXTT9=
EXTT10=
EXTT11=
EXTT12=
EXTT13=
PLAYORDER=
